<svg width="54" height="54" viewBox="0 0 54 54" fill="none" xmlns="http://www.w3.org/2000/svg">
<path d="M39.4254 0.333496C48.492 0.333496 53.6654 5.4535 53.6654 14.5468V39.4535C53.6654 48.4935 48.5187 53.6668 39.452 53.6668H14.5454C5.45203 53.6668 0.332031 48.4935 0.332031 39.4535V14.5468C0.332031 5.4535 5.45203 0.333496 14.5454 0.333496H39.4254ZM26.972 15.0268C25.7454 15.0268 24.7587 16.0135 24.7587 17.2402V24.7602H17.212C16.6254 24.7602 16.0654 25.0002 15.6387 25.4002C15.2387 25.8268 14.9987 26.3842 14.9987 26.9735C14.9987 28.2002 15.9854 29.1868 17.212 29.2135H24.7587V36.7602C24.7587 37.9868 25.7454 38.9735 26.972 38.9735C28.1987 38.9735 29.1854 37.9868 29.1854 36.7602V29.2135H36.7587C37.9854 29.1868 38.972 28.2002 38.972 26.9735C38.972 25.7468 37.9854 24.7602 36.7587 24.7602H29.1854V17.2402C29.1854 16.0135 28.1987 15.0268 26.972 15.0268Z" fill="#C167A6"/>
</svg>
