<svg width="17" height="14" viewBox="0 0 17 14" fill="none" xmlns="http://www.w3.org/2000/svg">
<path d="M0.347656 7.20001C0.347656 6.82031 0.62981 6.50652 0.995886 6.45686L1.09766 6.45001L14.2817 6.45061L9.51867 1.70708C9.22515 1.41482 9.22412 0.939945 9.51639 0.646422C9.78208 0.379583 10.1987 0.35448 10.4928 0.571701L10.577 0.644138L16.627 6.66814C16.6657 6.70666 16.6993 6.74836 16.7279 6.79239C16.7359 6.80564 16.7441 6.8192 16.7519 6.83303C16.759 6.84489 16.7655 6.8572 16.7716 6.86964C16.7801 6.88775 16.7883 6.90646 16.7959 6.92555C16.802 6.94027 16.807 6.95459 16.8117 6.96902C16.8172 6.98691 16.8226 7.00598 16.8272 7.02534C16.8306 7.03886 16.8334 7.05186 16.8357 7.06492C16.8391 7.08435 16.8419 7.10446 16.8439 7.12481C16.8457 7.14033 16.8467 7.1557 16.8473 7.17109C16.8475 7.18043 16.8477 7.1902 16.8477 7.20001L16.8473 7.22906C16.8467 7.24378 16.8457 7.25849 16.8443 7.27316L16.8477 7.20001C16.8477 7.24734 16.8433 7.29364 16.8349 7.33854C16.8329 7.34926 16.8306 7.36027 16.8281 7.37123C16.8227 7.39381 16.8166 7.41555 16.8095 7.43687C16.806 7.44746 16.802 7.45877 16.7976 7.47C16.7889 7.49257 16.7793 7.51408 16.7689 7.53504C16.764 7.54489 16.7585 7.55521 16.7528 7.56542C16.7434 7.58208 16.7338 7.59791 16.7236 7.61334C16.7164 7.62426 16.7084 7.63562 16.7001 7.64681L16.6936 7.65546C16.6734 7.68185 16.6515 7.70687 16.628 7.73034L16.6271 7.73104L10.5771 13.756C10.2836 14.0483 9.80871 14.0473 9.51643 13.7538C9.25071 13.487 9.22737 13.0703 9.44583 12.7772L9.51863 12.6932L14.2797 7.95061L1.09766 7.95001C0.683443 7.95001 0.347656 7.61422 0.347656 7.20001Z" fill="#0199B3"/>
</svg>
