<svg width="374" height="230" viewBox="0 0 374 230" fill="none" xmlns="http://www.w3.org/2000/svg">
<rect width="374" height="230" rx="12" fill="url(#paint0_linear_1_59497)"/>
<mask id="mask0_1_59497" style="mask-type:alpha" maskUnits="userSpaceOnUse" x="0" y="0" width="374" height="230">
<rect width="374" height="230" rx="12" fill="#C4C4C4"/>
</mask>
<g mask="url(#mask0_1_59497)">
<circle cx="349.5" cy="206.5" r="110.5" fill="white" fill-opacity="0.14"/>
<circle cx="13" cy="18" r="54.5" stroke="white" stroke-opacity="0.15"/>
<circle cx="12.5" cy="17.5" r="98" stroke="white" stroke-opacity="0.15"/>
<circle cx="12.5" cy="17.5" r="143" stroke="white" stroke-opacity="0.15"/>
<circle cx="13" cy="18" r="190.5" stroke="white" stroke-opacity="0.15"/>
<circle cx="12.5" cy="17.5" r="238" stroke="white" stroke-opacity="0.15"/>
</g>
<path d="M23.0151 36.436V44.212C23.0151 45.064 23.2371 45.718 23.6811 46.174C24.1251 46.618 24.7491 46.84 25.5531 46.84C26.3691 46.84 26.9991 46.618 27.4431 46.174C27.8871 45.718 28.1091 45.064 28.1091 44.212V36.436H30.6471V44.194C30.6471 45.262 30.4131 46.168 29.9451 46.912C29.4891 47.644 28.8711 48.196 28.0911 48.568C27.3231 48.94 26.4651 49.126 25.5171 49.126C24.5811 49.126 23.7291 48.94 22.9611 48.568C22.2051 48.196 21.6051 47.644 21.1611 46.912C20.7171 46.168 20.4951 45.262 20.4951 44.194V36.436H23.0151ZM38.6078 38.884C39.7958 38.884 40.7558 39.262 41.4878 40.018C42.2198 40.762 42.5858 41.806 42.5858 43.15V49H40.0658V43.492C40.0658 42.7 39.8678 42.094 39.4718 41.674C39.0758 41.242 38.5358 41.026 37.8518 41.026C37.1558 41.026 36.6038 41.242 36.1958 41.674C35.7998 42.094 35.6018 42.7 35.6018 43.492V49H33.0818V39.028H35.6018V40.27C35.9378 39.838 36.3638 39.502 36.8798 39.262C37.4078 39.01 37.9838 38.884 38.6078 38.884ZM46.2602 37.84C45.8162 37.84 45.4442 37.702 45.1442 37.426C44.8562 37.138 44.7122 36.784 44.7122 36.364C44.7122 35.944 44.8562 35.596 45.1442 35.32C45.4442 35.032 45.8162 34.888 46.2602 34.888C46.7042 34.888 47.0702 35.032 47.3582 35.32C47.6582 35.596 47.8082 35.944 47.8082 36.364C47.8082 36.784 47.6582 37.138 47.3582 37.426C47.0702 37.702 46.7042 37.84 46.2602 37.84ZM47.5022 39.028V49H44.9822V39.028H47.5022ZM54.15 46.678L56.67 39.028H59.352L55.662 49H52.602L48.93 39.028H51.63L54.15 46.678ZM70.0374 43.798C70.0374 44.158 70.0134 44.482 69.9654 44.77H62.6754C62.7354 45.49 62.9874 46.054 63.4314 46.462C63.8754 46.87 64.4214 47.074 65.0694 47.074C66.0054 47.074 66.6714 46.672 67.0674 45.868H69.7854C69.4974 46.828 68.9454 47.62 68.1294 48.244C67.3134 48.856 66.3114 49.162 65.1234 49.162C64.1634 49.162 63.2994 48.952 62.5314 48.532C61.7754 48.1 61.1814 47.494 60.7494 46.714C60.3294 45.934 60.1194 45.034 60.1194 44.014C60.1194 42.982 60.3294 42.076 60.7494 41.296C61.1694 40.516 61.7574 39.916 62.5134 39.496C63.2694 39.076 64.1394 38.866 65.1234 38.866C66.0714 38.866 66.9174 39.07 67.6614 39.478C68.4174 39.886 68.9994 40.468 69.4074 41.224C69.8274 41.968 70.0374 42.826 70.0374 43.798ZM67.4274 43.078C67.4154 42.43 67.1814 41.914 66.7254 41.53C66.2694 41.134 65.7114 40.936 65.0514 40.936C64.4274 40.936 63.8994 41.128 63.4674 41.512C63.0474 41.884 62.7894 42.406 62.6934 43.078H67.4274ZM74.3968 40.576C74.7208 40.048 75.1408 39.634 75.6568 39.334C76.1848 39.034 76.7848 38.884 77.4568 38.884V41.53H76.7908C75.9988 41.53 75.3988 41.716 74.9908 42.088C74.5948 42.46 74.3968 43.108 74.3968 44.032V49H71.8768V39.028H74.3968V40.576ZM82.9701 49.162C82.1541 49.162 81.4221 49.018 80.7741 48.73C80.1261 48.43 79.6101 48.028 79.2261 47.524C78.8541 47.02 78.6501 46.462 78.6141 45.85H81.1521C81.2001 46.234 81.3861 46.552 81.7101 46.804C82.0461 47.056 82.4601 47.182 82.9521 47.182C83.4321 47.182 83.8041 47.086 84.0681 46.894C84.3441 46.702 84.4821 46.456 84.4821 46.156C84.4821 45.832 84.3141 45.592 83.9781 45.436C83.6541 45.268 83.1321 45.088 82.4121 44.896C81.6681 44.716 81.0561 44.53 80.5761 44.338C80.1081 44.146 79.7001 43.852 79.3521 43.456C79.0161 43.06 78.8481 42.526 78.8481 41.854C78.8481 41.302 79.0041 40.798 79.3161 40.342C79.6401 39.886 80.0961 39.526 80.6841 39.262C81.2841 38.998 81.9861 38.866 82.7901 38.866C83.9781 38.866 84.9261 39.166 85.6341 39.766C86.3421 40.354 86.7321 41.152 86.8041 42.16H84.3921C84.3561 41.764 84.1881 41.452 83.8881 41.224C83.6001 40.984 83.2101 40.864 82.7181 40.864C82.2621 40.864 81.9081 40.948 81.6561 41.116C81.4161 41.284 81.2961 41.518 81.2961 41.818C81.2961 42.154 81.4641 42.412 81.8001 42.592C82.1361 42.76 82.6581 42.934 83.3661 43.114C84.0861 43.294 84.6801 43.48 85.1481 43.672C85.6161 43.864 86.0181 44.164 86.3541 44.572C86.7021 44.968 86.8821 45.496 86.8941 46.156C86.8941 46.732 86.7321 47.248 86.4081 47.704C86.0961 48.16 85.6401 48.52 85.0401 48.784C84.4521 49.036 83.7621 49.162 82.9701 49.162ZM88.3147 43.978C88.3147 42.97 88.5127 42.076 88.9087 41.296C89.3167 40.516 89.8627 39.916 90.5467 39.496C91.2427 39.076 92.0167 38.866 92.8687 38.866C93.6127 38.866 94.2607 39.016 94.8127 39.316C95.3767 39.616 95.8267 39.994 96.1627 40.45V39.028H98.7007V49H96.1627V47.542C95.8387 48.01 95.3887 48.4 94.8127 48.712C94.2487 49.012 93.5947 49.162 92.8507 49.162C92.0107 49.162 91.2427 48.946 90.5467 48.514C89.8627 48.082 89.3167 47.476 88.9087 46.696C88.5127 45.904 88.3147 44.998 88.3147 43.978ZM96.1627 44.014C96.1627 43.402 96.0427 42.88 95.8027 42.448C95.5627 42.004 95.2387 41.668 94.8307 41.44C94.4227 41.2 93.9847 41.08 93.5167 41.08C93.0487 41.08 92.6167 41.194 92.2207 41.422C91.8247 41.65 91.5007 41.986 91.2487 42.43C91.0087 42.862 90.8887 43.378 90.8887 43.978C90.8887 44.578 91.0087 45.106 91.2487 45.562C91.5007 46.006 91.8247 46.348 92.2207 46.588C92.6287 46.828 93.0607 46.948 93.5167 46.948C93.9847 46.948 94.4227 46.834 94.8307 46.606C95.2387 46.366 95.5627 46.03 95.8027 45.598C96.0427 45.154 96.1627 44.626 96.1627 44.014ZM103.682 35.68V49H101.162V35.68H103.682ZM109.849 42.7C109.849 41.464 110.125 40.36 110.677 39.388C111.241 38.404 112.003 37.642 112.963 37.102C113.935 36.55 115.021 36.274 116.221 36.274C117.625 36.274 118.855 36.634 119.911 37.354C120.967 38.074 121.705 39.07 122.125 40.342H119.227C118.939 39.742 118.531 39.292 118.003 38.992C117.487 38.692 116.887 38.542 116.203 38.542C115.471 38.542 114.817 38.716 114.241 39.064C113.677 39.4 113.233 39.88 112.909 40.504C112.597 41.128 112.441 41.86 112.441 42.7C112.441 43.528 112.597 44.26 112.909 44.896C113.233 45.52 113.677 46.006 114.241 46.354C114.817 46.69 115.471 46.858 116.203 46.858C116.887 46.858 117.487 46.708 118.003 46.408C118.531 46.096 118.939 45.64 119.227 45.04H122.125C121.705 46.324 120.967 47.326 119.911 48.046C118.867 48.754 117.637 49.108 116.221 49.108C115.021 49.108 113.935 48.838 112.963 48.298C112.003 47.746 111.241 46.984 110.677 46.012C110.125 45.04 109.849 43.936 109.849 42.7ZM123.629 43.978C123.629 42.97 123.827 42.076 124.223 41.296C124.631 40.516 125.177 39.916 125.861 39.496C126.557 39.076 127.331 38.866 128.183 38.866C128.927 38.866 129.575 39.016 130.127 39.316C130.691 39.616 131.141 39.994 131.477 40.45V39.028H134.015V49H131.477V47.542C131.153 48.01 130.703 48.4 130.127 48.712C129.563 49.012 128.909 49.162 128.165 49.162C127.325 49.162 126.557 48.946 125.861 48.514C125.177 48.082 124.631 47.476 124.223 46.696C123.827 45.904 123.629 44.998 123.629 43.978ZM131.477 44.014C131.477 43.402 131.357 42.88 131.117 42.448C130.877 42.004 130.553 41.668 130.145 41.44C129.737 41.2 129.299 41.08 128.831 41.08C128.363 41.08 127.931 41.194 127.535 41.422C127.139 41.65 126.815 41.986 126.563 42.43C126.323 42.862 126.203 43.378 126.203 43.978C126.203 44.578 126.323 45.106 126.563 45.562C126.815 46.006 127.139 46.348 127.535 46.588C127.943 46.828 128.375 46.948 128.831 46.948C129.299 46.948 129.737 46.834 130.145 46.606C130.553 46.366 130.877 46.03 131.117 45.598C131.357 45.154 131.477 44.626 131.477 44.014ZM138.996 40.576C139.32 40.048 139.74 39.634 140.256 39.334C140.784 39.034 141.384 38.884 142.056 38.884V41.53H141.39C140.598 41.53 139.998 41.716 139.59 42.088C139.194 42.46 138.996 43.108 138.996 44.032V49H136.476V39.028H138.996V40.576ZM143.106 43.978C143.106 42.97 143.304 42.076 143.7 41.296C144.108 40.516 144.66 39.916 145.356 39.496C146.052 39.076 146.826 38.866 147.678 38.866C148.326 38.866 148.944 39.01 149.532 39.298C150.12 39.574 150.588 39.946 150.936 40.414V35.68H153.492V49H150.936V47.524C150.624 48.016 150.186 48.412 149.622 48.712C149.058 49.012 148.404 49.162 147.66 49.162C146.82 49.162 146.052 48.946 145.356 48.514C144.66 48.082 144.108 47.476 143.7 46.696C143.304 45.904 143.106 44.998 143.106 43.978ZM150.954 44.014C150.954 43.402 150.834 42.88 150.594 42.448C150.354 42.004 150.03 41.668 149.622 41.44C149.214 41.2 148.776 41.08 148.308 41.08C147.84 41.08 147.408 41.194 147.012 41.422C146.616 41.65 146.292 41.986 146.04 42.43C145.8 42.862 145.68 43.378 145.68 43.978C145.68 44.578 145.8 45.106 146.04 45.562C146.292 46.006 146.616 46.348 147.012 46.588C147.42 46.828 147.852 46.948 148.308 46.948C148.776 46.948 149.214 46.834 149.622 46.606C150.03 46.366 150.354 46.03 150.594 45.598C150.834 45.154 150.954 44.626 150.954 44.014Z" fill="white"/>
<circle cx="322" cy="43" r="12" fill="white" fill-opacity="0.4"/>
<circle cx="338" cy="43" r="12" fill="white" fill-opacity="0.4"/>
<path d="M35.538 105.976H26.466V110.764C26.858 110.279 27.418 109.887 28.146 109.588C28.874 109.271 29.6487 109.112 30.47 109.112C31.9633 109.112 33.186 109.439 34.138 110.092C35.09 110.745 35.7807 111.585 36.21 112.612C36.6393 113.62 36.854 114.703 36.854 115.86C36.854 118.007 36.238 119.733 35.006 121.04C33.7927 122.347 32.0567 123 29.798 123C27.67 123 25.9713 122.468 24.702 121.404C23.4327 120.34 22.714 118.949 22.546 117.232H26.354C26.522 117.979 26.8953 118.576 27.474 119.024C28.0713 119.472 28.8273 119.696 29.742 119.696C30.8433 119.696 31.674 119.351 32.234 118.66C32.794 117.969 33.074 117.055 33.074 115.916C33.074 114.759 32.7847 113.881 32.206 113.284C31.646 112.668 30.8153 112.36 29.714 112.36C28.93 112.36 28.2767 112.556 27.754 112.948C27.2313 113.34 26.858 113.863 26.634 114.516H22.882V102.532H35.538V105.976ZM41.0695 118.576C42.8615 117.083 44.2895 115.841 45.3535 114.852C46.4175 113.844 47.3042 112.799 48.0135 111.716C48.7228 110.633 49.0775 109.569 49.0775 108.524C49.0775 107.572 48.8535 106.825 48.4055 106.284C47.9575 105.743 47.2668 105.472 46.3335 105.472C45.4002 105.472 44.6815 105.789 44.1775 106.424C43.6735 107.04 43.4122 107.889 43.3935 108.972H39.5855C39.6602 106.732 40.3228 105.033 41.5735 103.876C42.8428 102.719 44.4482 102.14 46.3895 102.14C48.5175 102.14 50.1508 102.709 51.2895 103.848C52.4282 104.968 52.9975 106.452 52.9975 108.3C52.9975 109.756 52.6055 111.147 51.8215 112.472C51.0375 113.797 50.1415 114.955 49.1335 115.944C48.1255 116.915 46.8095 118.091 45.1855 119.472H53.4455V122.72H39.6135V119.808L41.0695 118.576ZM55.4396 106.2V102.588H62.1876V123H58.1556V106.2H55.4396ZM65.8922 119.024V115.944L75.0482 102.84H79.6122V115.608H82.0762V119.024H79.6122V123H75.6922V119.024H65.8922ZM75.9442 107.04L70.2042 115.608H75.9442V107.04ZM91.0758 119.024V115.944L100.232 102.84H104.796V115.608H107.26V119.024H104.796V123H100.876V119.024H91.0758ZM101.128 107.04L95.3878 115.608H101.128V107.04ZM109.811 107.964C109.905 106.097 110.558 104.66 111.771 103.652C113.003 102.625 114.618 102.112 116.615 102.112C117.978 102.112 119.145 102.355 120.115 102.84C121.086 103.307 121.814 103.951 122.299 104.772C122.803 105.575 123.055 106.489 123.055 107.516C123.055 108.692 122.747 109.691 122.131 110.512C121.534 111.315 120.815 111.856 119.975 112.136V112.248C121.058 112.584 121.898 113.181 122.495 114.04C123.111 114.899 123.419 116 123.419 117.344C123.419 118.464 123.158 119.463 122.635 120.34C122.131 121.217 121.375 121.908 120.367 122.412C119.378 122.897 118.183 123.14 116.783 123.14C114.674 123.14 112.957 122.608 111.631 121.544C110.306 120.48 109.606 118.912 109.531 116.84H113.339C113.377 117.755 113.685 118.492 114.263 119.052C114.861 119.593 115.673 119.864 116.699 119.864C117.651 119.864 118.379 119.603 118.883 119.08C119.406 118.539 119.667 117.848 119.667 117.008C119.667 115.888 119.313 115.085 118.603 114.6C117.894 114.115 116.793 113.872 115.299 113.872H114.487V110.652H115.299C117.95 110.652 119.275 109.765 119.275 107.992C119.275 107.189 119.033 106.564 118.547 106.116C118.081 105.668 117.399 105.444 116.503 105.444C115.626 105.444 114.945 105.687 114.459 106.172C113.993 106.639 113.722 107.236 113.647 107.964H109.811ZM127.749 118.576C129.541 117.083 130.969 115.841 132.033 114.852C133.097 113.844 133.984 112.799 134.693 111.716C135.403 110.633 135.757 109.569 135.757 108.524C135.757 107.572 135.533 106.825 135.085 106.284C134.637 105.743 133.947 105.472 133.013 105.472C132.08 105.472 131.361 105.789 130.857 106.424C130.353 107.04 130.092 107.889 130.073 108.972H126.265C126.34 106.732 127.003 105.033 128.253 103.876C129.523 102.719 131.128 102.14 133.069 102.14C135.197 102.14 136.831 102.709 137.969 103.848C139.108 104.968 139.677 106.452 139.677 108.3C139.677 109.756 139.285 111.147 138.501 112.472C137.717 113.797 136.821 114.955 135.813 115.944C134.805 116.915 133.489 118.091 131.865 119.472H140.125V122.72H126.293V119.808L127.749 118.576ZM142.119 106.2V102.588H148.867V123H144.835V106.2H142.119ZM173.132 105.976H164.06V110.764C164.452 110.279 165.012 109.887 165.74 109.588C166.468 109.271 167.242 109.112 168.064 109.112C169.557 109.112 170.78 109.439 171.732 110.092C172.684 110.745 173.374 111.585 173.804 112.612C174.233 113.62 174.448 114.703 174.448 115.86C174.448 118.007 173.832 119.733 172.6 121.04C171.386 122.347 169.65 123 167.392 123C165.264 123 163.565 122.468 162.296 121.404C161.026 120.34 160.308 118.949 160.14 117.232H163.948C164.116 117.979 164.489 118.576 165.068 119.024C165.665 119.472 166.421 119.696 167.336 119.696C168.437 119.696 169.268 119.351 169.828 118.66C170.388 117.969 170.668 117.055 170.668 115.916C170.668 114.759 170.378 113.881 169.8 113.284C169.24 112.668 168.409 112.36 167.308 112.36C166.524 112.36 165.87 112.556 165.348 112.948C164.825 113.34 164.452 113.863 164.228 114.516H160.476V102.532H173.132V105.976ZM188.015 107.684C187.829 106.9 187.502 106.312 187.035 105.92C186.587 105.528 185.934 105.332 185.075 105.332C183.787 105.332 182.835 105.855 182.219 106.9C181.622 107.927 181.314 109.607 181.295 111.94C181.743 111.193 182.397 110.615 183.255 110.204C184.114 109.775 185.047 109.56 186.055 109.56C187.269 109.56 188.342 109.821 189.275 110.344C190.209 110.867 190.937 111.632 191.459 112.64C191.982 113.629 192.243 114.824 192.243 116.224C192.243 117.549 191.973 118.735 191.431 119.78C190.909 120.807 190.134 121.609 189.107 122.188C188.081 122.767 186.858 123.056 185.439 123.056C183.498 123.056 181.967 122.627 180.847 121.768C179.746 120.909 178.971 119.715 178.523 118.184C178.094 116.635 177.879 114.731 177.879 112.472C177.879 109.056 178.467 106.48 179.643 104.744C180.819 102.989 182.677 102.112 185.215 102.112C187.175 102.112 188.697 102.644 189.779 103.708C190.862 104.772 191.487 106.097 191.655 107.684H188.015ZM185.159 112.78C184.17 112.78 183.339 113.069 182.667 113.648C181.995 114.227 181.659 115.067 181.659 116.168C181.659 117.269 181.967 118.137 182.583 118.772C183.218 119.407 184.105 119.724 185.243 119.724C186.251 119.724 187.045 119.416 187.623 118.8C188.221 118.184 188.519 117.353 188.519 116.308C188.519 115.225 188.23 114.367 187.651 113.732C187.091 113.097 186.261 112.78 185.159 112.78ZM208.333 105.556L200.885 123H196.909L204.413 106.004H194.837V102.644H208.333V105.556ZM214.097 112.192C212.231 111.221 211.297 109.719 211.297 107.684C211.297 106.676 211.549 105.761 212.053 104.94C212.576 104.1 213.351 103.437 214.377 102.952C215.423 102.448 216.692 102.196 218.185 102.196C219.679 102.196 220.939 102.448 221.965 102.952C223.011 103.437 223.785 104.1 224.289 104.94C224.812 105.761 225.073 106.676 225.073 107.684C225.073 108.711 224.821 109.616 224.317 110.4C223.813 111.165 223.141 111.763 222.301 112.192C223.328 112.64 224.131 113.293 224.709 114.152C225.288 115.011 225.577 116.028 225.577 117.204C225.577 118.473 225.251 119.584 224.597 120.536C223.963 121.469 223.085 122.188 221.965 122.692C220.845 123.196 219.585 123.448 218.185 123.448C216.785 123.448 215.525 123.196 214.405 122.692C213.304 122.188 212.427 121.469 211.773 120.536C211.139 119.584 210.821 118.473 210.821 117.204C210.821 116.028 211.111 115.011 211.689 114.152C212.268 113.275 213.071 112.621 214.097 112.192ZM221.265 108.244C221.265 107.329 220.985 106.62 220.425 106.116C219.884 105.612 219.137 105.36 218.185 105.36C217.252 105.36 216.505 105.612 215.945 106.116C215.404 106.62 215.133 107.339 215.133 108.272C215.133 109.112 215.413 109.784 215.973 110.288C216.552 110.792 217.289 111.044 218.185 111.044C219.081 111.044 219.819 110.792 220.397 110.288C220.976 109.765 221.265 109.084 221.265 108.244ZM218.185 113.9C217.121 113.9 216.253 114.171 215.581 114.712C214.928 115.253 214.601 116.028 214.601 117.036C214.601 117.969 214.919 118.735 215.553 119.332C216.207 119.911 217.084 120.2 218.185 120.2C219.287 120.2 220.155 119.901 220.789 119.304C221.424 118.707 221.741 117.951 221.741 117.036C221.741 116.047 221.415 115.281 220.761 114.74C220.108 114.18 219.249 113.9 218.185 113.9ZM235.177 119.024V115.944L244.333 102.84H248.897V115.608H251.361V119.024H248.897V123H244.977V119.024H235.177ZM245.229 107.04L239.489 115.608H245.229V107.04ZM253.913 107.964C254.006 106.097 254.66 104.66 255.873 103.652C257.105 102.625 258.72 102.112 260.717 102.112C262.08 102.112 263.246 102.355 264.217 102.84C265.188 103.307 265.916 103.951 266.401 104.772C266.905 105.575 267.157 106.489 267.157 107.516C267.157 108.692 266.849 109.691 266.233 110.512C265.636 111.315 264.917 111.856 264.077 112.136V112.248C265.16 112.584 266 113.181 266.597 114.04C267.213 114.899 267.521 116 267.521 117.344C267.521 118.464 267.26 119.463 266.737 120.34C266.233 121.217 265.477 121.908 264.469 122.412C263.48 122.897 262.285 123.14 260.885 123.14C258.776 123.14 257.058 122.608 255.733 121.544C254.408 120.48 253.708 118.912 253.633 116.84H257.441C257.478 117.755 257.786 118.492 258.365 119.052C258.962 119.593 259.774 119.864 260.801 119.864C261.753 119.864 262.481 119.603 262.985 119.08C263.508 118.539 263.769 117.848 263.769 117.008C263.769 115.888 263.414 115.085 262.705 114.6C261.996 114.115 260.894 113.872 259.401 113.872H258.589V110.652H259.401C262.052 110.652 263.377 109.765 263.377 107.992C263.377 107.189 263.134 106.564 262.649 106.116C262.182 105.668 261.501 105.444 260.605 105.444C259.728 105.444 259.046 105.687 258.561 106.172C258.094 106.639 257.824 107.236 257.749 107.964H253.913ZM270.451 119.024V115.944L279.607 102.84H284.171V115.608H286.635V119.024H284.171V123H280.251V119.024H270.451ZM280.503 107.04L274.763 115.608H280.503V107.04ZM302.85 105.976H293.778V110.764C294.17 110.279 294.73 109.887 295.458 109.588C296.186 109.271 296.961 109.112 297.782 109.112C299.276 109.112 300.498 109.439 301.45 110.092C302.402 110.745 303.093 111.585 303.522 112.612C303.952 113.62 304.166 114.703 304.166 115.86C304.166 118.007 303.55 119.733 302.318 121.04C301.105 122.347 299.369 123 297.11 123C294.982 123 293.284 122.468 292.014 121.404C290.745 120.34 290.026 118.949 289.858 117.232H293.666C293.834 117.979 294.208 118.576 294.786 119.024C295.384 119.472 296.14 119.696 297.054 119.696C298.156 119.696 298.986 119.351 299.546 118.66C300.106 117.969 300.386 117.055 300.386 115.916C300.386 114.759 300.097 113.881 299.518 113.284C298.958 112.668 298.128 112.36 297.026 112.36C296.242 112.36 295.589 112.556 295.066 112.948C294.544 113.34 294.17 113.863 293.946 114.516H290.194V102.532H302.85V105.976Z" fill="white"/>
<path d="M29.88 200L27.836 196.29H27.262V200H24.868V190.172H28.886C29.6607 190.172 30.3187 190.307 30.86 190.578C31.4107 190.849 31.8213 191.222 32.092 191.698C32.3627 192.165 32.498 192.687 32.498 193.266C32.498 193.919 32.3113 194.503 31.938 195.016C31.574 195.529 31.0327 195.893 30.314 196.108L32.582 200H29.88ZM27.262 194.596H28.746C29.1847 194.596 29.5113 194.489 29.726 194.274C29.95 194.059 30.062 193.756 30.062 193.364C30.062 192.991 29.95 192.697 29.726 192.482C29.5113 192.267 29.1847 192.16 28.746 192.16H27.262V194.596ZM37.5568 200.112C36.7915 200.112 36.1008 199.949 35.4848 199.622C34.8781 199.295 34.3975 198.829 34.0428 198.222C33.6975 197.615 33.5248 196.906 33.5248 196.094C33.5248 195.291 33.7021 194.587 34.0568 193.98C34.4115 193.364 34.8968 192.893 35.5128 192.566C36.1288 192.239 36.8195 192.076 37.5848 192.076C38.3501 192.076 39.0408 192.239 39.6568 192.566C40.2728 192.893 40.7581 193.364 41.1128 193.98C41.4675 194.587 41.6448 195.291 41.6448 196.094C41.6448 196.897 41.4628 197.606 41.0988 198.222C40.7441 198.829 40.2541 199.295 39.6288 199.622C39.0128 199.949 38.3221 200.112 37.5568 200.112ZM37.5568 198.04C38.0141 198.04 38.4015 197.872 38.7188 197.536C39.0455 197.2 39.2088 196.719 39.2088 196.094C39.2088 195.469 39.0501 194.988 38.7328 194.652C38.4248 194.316 38.0421 194.148 37.5848 194.148C37.1181 194.148 36.7308 194.316 36.4228 194.652C36.1148 194.979 35.9608 195.459 35.9608 196.094C35.9608 196.719 36.1101 197.2 36.4088 197.536C36.7168 197.872 37.0995 198.04 37.5568 198.04ZM45.3089 193.294C45.5329 192.93 45.8549 192.636 46.2749 192.412C46.6949 192.188 47.1755 192.076 47.7169 192.076C48.3609 192.076 48.9442 192.239 49.4669 192.566C49.9895 192.893 50.4002 193.359 50.6989 193.966C51.0069 194.573 51.1609 195.277 51.1609 196.08C51.1609 196.883 51.0069 197.592 50.6989 198.208C50.4002 198.815 49.9895 199.286 49.4669 199.622C48.9442 199.949 48.3609 200.112 47.7169 200.112C47.1662 200.112 46.6855 200.005 46.2749 199.79C45.8642 199.566 45.5422 199.272 45.3089 198.908V200H42.9149V189.64H45.3089V193.294ZM48.7249 196.08C48.7249 195.483 48.5569 195.016 48.2209 194.68C47.8942 194.335 47.4882 194.162 47.0029 194.162C46.5269 194.162 46.1209 194.335 45.7849 194.68C45.4582 195.025 45.2949 195.497 45.2949 196.094C45.2949 196.691 45.4582 197.163 45.7849 197.508C46.1209 197.853 46.5269 198.026 47.0029 198.026C47.4789 198.026 47.8849 197.853 48.2209 197.508C48.5569 197.153 48.7249 196.677 48.7249 196.08ZM59.7808 195.968C59.7808 196.192 59.7668 196.425 59.7388 196.668H54.3208C54.3582 197.153 54.5122 197.527 54.7828 197.788C55.0628 198.04 55.4035 198.166 55.8048 198.166C56.4022 198.166 56.8175 197.914 57.0508 197.41H59.5988C59.4682 197.923 59.2302 198.385 58.8848 198.796C58.5488 199.207 58.1242 199.529 57.6108 199.762C57.0975 199.995 56.5235 200.112 55.8888 200.112C55.1235 200.112 54.4422 199.949 53.8448 199.622C53.2475 199.295 52.7808 198.829 52.4448 198.222C52.1088 197.615 51.9408 196.906 51.9408 196.094C51.9408 195.282 52.1042 194.573 52.4308 193.966C52.7668 193.359 53.2335 192.893 53.8308 192.566C54.4282 192.239 55.1142 192.076 55.8888 192.076C56.6448 192.076 57.3168 192.235 57.9048 192.552C58.4928 192.869 58.9502 193.322 59.2768 193.91C59.6128 194.498 59.7808 195.184 59.7808 195.968ZM57.3308 195.338C57.3308 194.927 57.1908 194.601 56.9108 194.358C56.6308 194.115 56.2808 193.994 55.8608 193.994C55.4595 193.994 55.1188 194.111 54.8388 194.344C54.5682 194.577 54.4002 194.909 54.3348 195.338H57.3308ZM63.4378 193.49C63.7178 193.061 64.0678 192.725 64.4878 192.482C64.9078 192.23 65.3744 192.104 65.8878 192.104V194.638H65.2298C64.6324 194.638 64.1844 194.769 63.8858 195.03C63.5871 195.282 63.4378 195.73 63.4378 196.374V200H61.0438V192.188H63.4378V193.49ZM71.3861 197.97V200H70.1681C69.3001 200 68.6234 199.79 68.1381 199.37C67.6527 198.941 67.4101 198.245 67.4101 197.284V194.176H66.4581V192.188H67.4101V190.284H69.8041V192.188H71.3721V194.176H69.8041V197.312C69.8041 197.545 69.8601 197.713 69.9721 197.816C70.0841 197.919 70.2707 197.97 70.5321 197.97H71.3861ZM82.0844 190.172V192.09H78.0804V194.162H81.0764V196.024H78.0804V200H75.6864V190.172H82.0844ZM86.8986 200.112C86.1333 200.112 85.4426 199.949 84.8266 199.622C84.2199 199.295 83.7393 198.829 83.3846 198.222C83.0393 197.615 82.8666 196.906 82.8666 196.094C82.8666 195.291 83.0439 194.587 83.3986 193.98C83.7533 193.364 84.2386 192.893 84.8546 192.566C85.4706 192.239 86.1613 192.076 86.9266 192.076C87.6919 192.076 88.3826 192.239 88.9986 192.566C89.6146 192.893 90.0999 193.364 90.4546 193.98C90.8093 194.587 90.9866 195.291 90.9866 196.094C90.9866 196.897 90.8046 197.606 90.4406 198.222C90.0859 198.829 89.5959 199.295 88.9706 199.622C88.3546 199.949 87.6639 200.112 86.8986 200.112ZM86.8986 198.04C87.3559 198.04 87.7433 197.872 88.0606 197.536C88.3873 197.2 88.5506 196.719 88.5506 196.094C88.5506 195.469 88.3919 194.988 88.0746 194.652C87.7666 194.316 87.3839 194.148 86.9266 194.148C86.4599 194.148 86.0726 194.316 85.7646 194.652C85.4566 194.979 85.3026 195.459 85.3026 196.094C85.3026 196.719 85.4519 197.2 85.7506 197.536C86.0586 197.872 86.4413 198.04 86.8986 198.04ZM96.8767 200L95.3787 197.83L94.1187 200H91.5287L94.1047 196.01L91.4587 192.188H94.1467L95.6447 194.344L96.9047 192.188H99.4947L96.8767 196.122L99.5647 200H96.8767Z" fill="white" fill-opacity="0.8"/>
<path d="M314.524 192.006V189.78H318.402V200H315.91V192.006H314.524ZM319.955 198.082C320.273 197.83 320.417 197.713 320.389 197.732C321.304 196.976 322.023 196.355 322.545 195.87C323.077 195.385 323.525 194.876 323.889 194.344C324.253 193.812 324.435 193.294 324.435 192.79C324.435 192.407 324.347 192.109 324.169 191.894C323.992 191.679 323.726 191.572 323.371 191.572C323.017 191.572 322.737 191.707 322.531 191.978C322.335 192.239 322.237 192.613 322.237 193.098H319.927C319.946 192.305 320.114 191.642 320.431 191.11C320.758 190.578 321.183 190.186 321.705 189.934C322.237 189.682 322.825 189.556 323.469 189.556C324.58 189.556 325.415 189.841 325.975 190.41C326.545 190.979 326.829 191.721 326.829 192.636C326.829 193.635 326.489 194.563 325.807 195.422C325.126 196.271 324.258 197.102 323.203 197.914H326.983V199.86H319.955V198.082ZM333.609 186.7L329.857 202.618H327.547L331.299 186.7H333.609ZM334.297 198.082C334.614 197.83 334.759 197.713 334.731 197.732C335.646 196.976 336.364 196.355 336.887 195.87C337.419 195.385 337.867 194.876 338.231 194.344C338.595 193.812 338.777 193.294 338.777 192.79C338.777 192.407 338.688 192.109 338.511 191.894C338.334 191.679 338.068 191.572 337.713 191.572C337.358 191.572 337.078 191.707 336.873 191.978C336.677 192.239 336.579 192.613 336.579 193.098H334.269C334.288 192.305 334.456 191.642 334.773 191.11C335.1 190.578 335.524 190.186 336.047 189.934C336.579 189.682 337.167 189.556 337.811 189.556C338.922 189.556 339.757 189.841 340.317 190.41C340.886 190.979 341.171 191.721 341.171 192.636C341.171 193.635 340.83 194.563 340.149 195.422C339.468 196.271 338.6 197.102 337.545 197.914H341.325V199.86H334.297V198.082ZM349.575 191.866H345.207V193.798C345.394 193.593 345.655 193.425 345.991 193.294C346.327 193.163 346.691 193.098 347.083 193.098C347.783 193.098 348.362 193.257 348.819 193.574C349.286 193.891 349.626 194.302 349.841 194.806C350.056 195.31 350.163 195.856 350.163 196.444C350.163 197.536 349.855 198.404 349.239 199.048C348.623 199.683 347.755 200 346.635 200C345.888 200 345.24 199.874 344.689 199.622C344.138 199.361 343.714 199.001 343.415 198.544C343.116 198.087 342.953 197.559 342.925 196.962H345.263C345.319 197.251 345.454 197.494 345.669 197.69C345.884 197.877 346.178 197.97 346.551 197.97C346.99 197.97 347.316 197.83 347.531 197.55C347.746 197.27 347.853 196.897 347.853 196.43C347.853 195.973 347.741 195.623 347.517 195.38C347.293 195.137 346.966 195.016 346.537 195.016C346.22 195.016 345.958 195.095 345.753 195.254C345.548 195.403 345.412 195.604 345.347 195.856H343.037V189.766H349.575V191.866Z" fill="white" fill-opacity="0.8"/>
<defs>
<linearGradient id="paint0_linear_1_59497" x1="45.0185" y1="9.87279e-07" x2="199.381" y2="294.284" gradientUnits="userSpaceOnUse">
<stop stop-color="#FEB7B3"/>
<stop offset="0.494792" stop-color="#FF9B93"/>
<stop offset="1" stop-color="#FF4F37"/>
</linearGradient>
</defs>
</svg>
