<svg width="65" height="64" viewBox="0 0 65 64" fill="none" xmlns="http://www.w3.org/2000/svg">
<rect x="0.347656" width="64" height="64" rx="12" fill="#FEEDEC"/>
<path d="M26.909 33.9597C28.789 33.9597 30.2956 35.481 30.2956 37.3743V41.9197C30.2956 43.7997 28.789 45.333 26.909 45.333H22.4023C20.5356 45.333 19.0156 43.7997 19.0156 41.9197V37.3743C19.0156 35.481 20.5356 33.9597 22.4023 33.9597H26.909ZM42.2958 33.9597C44.1624 33.9597 45.6824 35.481 45.6824 37.3743V41.9197C45.6824 43.7997 44.1624 45.333 42.2958 45.333H37.7891C35.9091 45.333 34.4024 43.7997 34.4024 41.9197V37.3743C34.4024 35.481 35.9091 33.9597 37.7891 33.9597H42.2958ZM26.909 18.6667C28.789 18.6667 30.2956 20.2001 30.2956 22.0814V26.6267C30.2956 28.5201 28.789 30.0401 26.909 30.0401H22.4023C20.5356 30.0401 19.0156 28.5201 19.0156 26.6267V22.0814C19.0156 20.2001 20.5356 18.6667 22.4023 18.6667H26.909ZM42.2958 18.6667C44.1624 18.6667 45.6824 20.2001 45.6824 22.0814V26.6267C45.6824 28.5201 44.1624 30.0401 42.2958 30.0401H37.7891C35.9091 30.0401 34.4024 28.5201 34.4024 26.6267V22.0814C34.4024 20.2001 35.9091 18.6667 37.7891 18.6667H42.2958Z" fill="#FF6A58"/>
</svg>
