<svg width="65" height="64" viewBox="0 0 65 64" fill="none" xmlns="http://www.w3.org/2000/svg">
<rect x="0.347656" width="64" height="64" rx="12" fill="#F5EBF2"/>
<path d="M38.8033 20.1411C43.4018 20.1411 46.1159 22.7872 46.1159 27.3168H40.4744V27.3631C37.8562 27.3631 35.7337 29.4324 35.7337 31.9851C35.7337 34.5378 37.8562 36.6072 40.4744 36.6072H46.1159V37.0232C46.1159 41.495 43.4018 44.1411 38.8033 44.1411H26.7618C22.1633 44.1411 19.4492 41.495 19.4492 37.0232V27.2591C19.4492 22.7872 22.1633 20.1411 26.7618 20.1411H38.8033ZM45.1203 29.3043C45.6702 29.3043 46.1159 29.7389 46.1159 30.275V33.6491C46.1095 34.1825 45.6675 34.6134 45.1203 34.6197H40.5811C39.2556 34.6371 38.0965 33.7523 37.7959 32.4935C37.6453 31.7122 37.8567 30.9059 38.3733 30.2907C38.8899 29.6756 39.659 29.3145 40.4744 29.3043H45.1203ZM41.1144 30.8643H40.6759C40.4067 30.8612 40.1474 30.9633 39.9559 31.1478C39.7644 31.3324 39.6566 31.584 39.6566 31.8465C39.6566 32.3972 40.1111 32.8454 40.6759 32.8518H41.1144C41.6773 32.8518 42.1337 32.4068 42.1337 31.858C42.1337 31.3092 41.6773 30.8643 41.1144 30.8643ZM33.2922 25.3294H25.7663C25.2079 25.3293 24.7535 25.7672 24.747 26.3116C24.747 26.8623 25.2014 27.3105 25.7663 27.3168H33.2922C33.8551 27.3168 34.3114 26.8719 34.3114 26.3231C34.3114 25.7743 33.8551 25.3294 33.2922 25.3294Z" fill="#C167A6"/>
</svg>
