<svg width="65" height="64" viewBox="0 0 65 64" fill="none" xmlns="http://www.w3.org/2000/svg">
<rect x="0.347656" width="64" height="64" rx="12" fill="#EBFCFF"/>
<path d="M38.4404 18.8216C40.3585 18.7018 42.2499 19.3677 43.6751 20.6731C44.9804 22.0983 45.6464 23.9896 45.5398 25.921V38.3614C45.6597 40.2928 44.9804 42.1841 43.6884 43.6093C42.2632 44.9146 40.3585 45.5806 38.4404 45.4607H25.9999C24.0685 45.5806 22.1771 44.9146 20.7519 43.6093C19.4466 42.1841 18.7806 40.2928 18.9005 38.3614V25.921C18.7806 23.9896 19.4466 22.0983 20.7519 20.6731C22.1771 19.3677 24.0685 18.7018 25.9999 18.8216H38.4404ZM38.0941 24.9087C37.2683 24.0829 35.9363 24.0829 35.1105 24.9087L34.2181 25.8144C34.0849 25.9476 34.0849 26.174 34.2181 26.3072C34.2181 26.3072 34.2443 26.3332 34.2908 26.3795L34.6184 26.7053C34.8079 26.8939 35.0445 27.1293 35.282 27.3661L36.0875 28.1712C36.2555 28.34 36.367 28.4532 36.3759 28.465C36.5224 28.6248 36.6156 28.8379 36.6156 29.0777C36.6156 29.5572 36.2294 29.9568 35.7365 29.9568C35.5101 29.9568 35.297 29.8636 35.1505 29.717L32.9261 27.506C32.8195 27.3994 32.6331 27.3994 32.5265 27.506L26.173 33.8594C25.7335 34.299 25.4804 34.885 25.4671 35.511L25.3872 38.6678C25.3872 38.8409 25.4405 39.0008 25.5603 39.1206C25.6802 39.2405 25.84 39.3071 26.0132 39.3071H29.1433C29.7827 39.3071 30.3954 39.054 30.8616 38.6012L39.8257 29.6105C40.6382 28.7847 40.6382 27.4527 39.8257 26.6402L38.0941 24.9087Z" fill="#019CB6"/>
</svg>
