<svg width="81" height="38" viewBox="0 0 81 38" fill="none" xmlns="http://www.w3.org/2000/svg">
<path d="M17 36.3658C17 36.3658 30.4355 33.3931 39.1202 33.0286C48.4056 32.6388 63 36.3659 63 36.3659" stroke="white" stroke-width="2"/>
<path d="M8.976 24.288C7.392 24.288 6.008 23.928 4.824 23.208C3.64 22.488 2.72 21.488 2.064 20.208C1.408 18.912 1.08 17.408 1.08 15.696C1.08 13.968 1.416 12.448 2.088 11.136C2.776 9.808 3.744 8.776 4.992 8.04C6.256 7.288 7.752 6.912 9.48 6.912C11.448 6.912 13.08 7.384 14.376 8.328C15.672 9.272 16.512 10.576 16.896 12.24H13.464C13.208 11.456 12.744 10.848 12.072 10.416C11.4 9.968 10.536 9.744 9.48 9.744C7.8 9.744 6.504 10.28 5.592 11.352C4.68 12.408 4.224 13.864 4.224 15.72C4.224 17.576 4.672 19.016 5.568 20.04C6.48 21.048 7.712 21.552 9.264 21.552C10.784 21.552 11.928 21.144 12.696 20.328C13.48 19.496 13.952 18.408 14.112 17.064H9.864V14.76H17.208V24H14.376L14.136 21.792C13.592 22.592 12.912 23.208 12.096 23.64C11.28 24.072 10.24 24.288 8.976 24.288ZM25.1865 24.288C23.9865 24.288 22.9225 24.032 21.9945 23.52C21.0665 23.008 20.3385 22.288 19.8105 21.36C19.2825 20.432 19.0185 19.36 19.0185 18.144C19.0185 16.912 19.2745 15.816 19.7865 14.856C20.3145 13.896 21.0345 13.152 21.9465 12.624C22.8745 12.08 23.9625 11.808 25.2105 11.808C26.3785 11.808 27.4105 12.064 28.3065 12.576C29.2025 13.088 29.8985 13.792 30.3945 14.688C30.9065 15.568 31.1625 16.552 31.1625 17.64C31.1625 17.816 31.1545 18 31.1385 18.192C31.1385 18.384 31.1305 18.584 31.1145 18.792H22.0665C22.1305 19.72 22.4505 20.448 23.0265 20.976C23.6185 21.504 24.3305 21.768 25.1625 21.768C25.7865 21.768 26.3065 21.632 26.7225 21.36C27.1545 21.072 27.4745 20.704 27.6825 20.256H30.8025C30.5785 21.008 30.2025 21.696 29.6745 22.32C29.1625 22.928 28.5225 23.408 27.7545 23.76C27.0025 24.112 26.1465 24.288 25.1865 24.288ZM25.2105 14.304C24.4585 14.304 23.7945 14.52 23.2185 14.952C22.6425 15.368 22.2745 16.008 22.1145 16.872H28.0425C27.9945 16.088 27.7065 15.464 27.1785 15C26.6505 14.536 25.9945 14.304 25.2105 14.304ZM38.1193 24C36.8713 24 35.8713 23.696 35.1193 23.088C34.3673 22.48 33.9913 21.4 33.9913 19.848V14.664H31.9513V12.096H33.9913L34.3513 8.904H37.0633V12.096H40.2793V14.664H37.0633V19.872C37.0633 20.448 37.1833 20.848 37.4233 21.072C37.6793 21.28 38.1113 21.384 38.7193 21.384H40.2073V24H38.1193ZM42.2689 24V7.2H48.4849C49.8289 7.2 50.9409 7.424 51.8209 7.872C52.7009 8.32 53.3569 8.936 53.7889 9.72C54.2209 10.504 54.4369 11.384 54.4369 12.36C54.4369 13.288 54.2289 14.144 53.8129 14.928C53.3969 15.696 52.7489 16.32 51.8689 16.8C50.9889 17.264 49.8609 17.496 48.4849 17.496H45.3409V24H42.2689ZM45.3409 15H48.2929C49.3649 15 50.1329 14.768 50.5969 14.304C51.0769 13.824 51.3169 13.176 51.3169 12.36C51.3169 11.528 51.0769 10.88 50.5969 10.416C50.1329 9.936 49.3649 9.696 48.2929 9.696H45.3409V15ZM59.409 24.288C58.385 24.288 57.545 24.128 56.889 23.808C56.233 23.472 55.745 23.032 55.425 22.488C55.105 21.944 54.945 21.344 54.945 20.688C54.945 19.584 55.377 18.688 56.241 18C57.105 17.312 58.401 16.968 60.129 16.968H63.153V16.68C63.153 15.864 62.921 15.264 62.457 14.88C61.993 14.496 61.417 14.304 60.729 14.304C60.105 14.304 59.561 14.456 59.097 14.76C58.633 15.048 58.345 15.48 58.233 16.056H55.233C55.313 15.192 55.601 14.44 56.097 13.8C56.609 13.16 57.265 12.672 58.065 12.336C58.865 11.984 59.761 11.808 60.753 11.808C62.449 11.808 63.785 12.232 64.761 13.08C65.737 13.928 66.225 15.128 66.225 16.68V24H63.609L63.321 22.08C62.969 22.72 62.473 23.248 61.833 23.664C61.209 24.08 60.401 24.288 59.409 24.288ZM60.105 21.888C60.985 21.888 61.665 21.6 62.145 21.024C62.641 20.448 62.953 19.736 63.081 18.888H60.465C59.649 18.888 59.065 19.04 58.713 19.344C58.361 19.632 58.185 19.992 58.185 20.424C58.185 20.888 58.361 21.248 58.713 21.504C59.065 21.76 59.529 21.888 60.105 21.888ZM69.5261 29.28L72.2861 23.208H71.5661L66.9341 12.096H70.2701L73.6061 20.472L77.0861 12.096H80.3501L72.7901 29.28H69.5261Z" fill="white"/>
</svg>
