<svg width="48" height="54" viewBox="0 0 48 54" fill="none" xmlns="http://www.w3.org/2000/svg">
<path d="M35.176 0.333252C43.4133 0.333252 48 5.07992 48 13.2133V40.7599C48 49.0266 43.4133 53.6666 35.176 53.6666H12.8267C4.72 53.6666 0 49.0266 0 40.7599V13.2133C0 5.07992 4.72 0.333252 12.8267 0.333252H35.176ZM13.5467 36.9733C12.7467 36.8933 11.9733 37.2666 11.5467 37.9599C11.12 38.6266 11.12 39.5066 11.5467 40.1999C11.9733 40.8666 12.7467 41.2666 13.5467 41.1599H34.4533C35.5173 41.0533 36.32 40.1439 36.32 39.0799C36.32 37.9866 35.5173 37.0799 34.4533 36.9733H13.5467ZM34.4533 24.8106H13.5467C12.3973 24.8106 11.4667 25.7466 11.4667 26.8933C11.4667 28.0399 12.3973 28.9733 13.5467 28.9733H34.4533C35.6 28.9733 36.5333 28.0399 36.5333 26.8933C36.5333 25.7466 35.6 24.8106 34.4533 24.8106ZM21.5173 12.7333H13.5467V12.7599C12.3973 12.7599 11.4667 13.6933 11.4667 14.8399C11.4667 15.9866 12.3973 16.9199 13.5467 16.9199H21.5173C22.6667 16.9199 23.6 15.9866 23.6 14.8106C23.6 13.6666 22.6667 12.7333 21.5173 12.7333Z" fill="#FF6A58"/>
</svg>
