<svg width="54" height="54" viewBox="0 0 54 54" fill="none" xmlns="http://www.w3.org/2000/svg">
<path d="M38.572 0.333252C47.612 0.333252 53.6654 6.67992 53.6654 16.1199V37.9093C53.6654 47.3199 47.612 53.6666 38.572 53.6666H15.452C6.41203 53.6666 0.332031 47.3199 0.332031 37.9093V16.1199C0.332031 6.67992 6.41203 0.333252 15.452 0.333252H38.572ZM38.1454 18.9999C37.2387 18.0933 35.7454 18.0933 34.8387 18.9999L23.8254 30.0133L19.1587 25.3466C18.252 24.4399 16.7587 24.4399 15.852 25.3466C14.9454 26.2533 14.9454 27.7199 15.852 28.6533L22.1987 34.9733C22.652 35.4266 23.2387 35.6399 23.8254 35.6399C24.4387 35.6399 25.0254 35.4266 25.4787 34.9733L38.1454 22.3066C39.052 21.3999 39.052 19.9333 38.1454 18.9999Z" fill="#019CB6"/>
</svg>
